CATALOG 0000000000000
FILE "Side Pocket 2 - Densetsu no Hustler (Japan) (Track 01).bin" BINARY
  TRACK 01 MODE1/2352
    INDEX 01 00:00:00
FILE "Side Pocket 2 - Densetsu no Hustler (Japan) (Track 02).bin" BINARY
  TRACK 02 AUDIO
    INDEX 00 00:00:00
    INDEX 01 00:02:00
FILE "Side Pocket 2 - Densetsu no Hustler (Japan) (Track 03).bin" BINARY
  TRACK 03 AUDIO
    INDEX 00 00:00:00
    INDEX 01 00:01:74
FILE "Side Pocket 2 - Densetsu no Hustler (Japan) (Track 04).bin" BINARY
  TRACK 04 AUDIO
    INDEX 00 00:00:00
    INDEX 01 00:01:74
FILE "Side Pocket 2 - Densetsu no Hustler (Japan) (Track 05).bin" BINARY
  TRACK 05 AUDIO
    INDEX 00 00:00:00
    INDEX 01 00:01:74
FILE "Side Pocket 2 - Densetsu no Hustler (Japan) (Track 06).bin" BINARY
  TRACK 06 AUDIO
    INDEX 00 00:00:00
    INDEX 01 00:01:74
FILE "Side Pocket 2 - Densetsu no Hustler (Japan) (Track 07).bin" BINARY
  TRACK 07 AUDIO
    INDEX 00 00:00:00
    INDEX 01 00:01:74
FILE "Side Pocket 2 - Densetsu no Hustler (Japan) (Track 08).bin" BINARY
  TRACK 08 AUDIO
    INDEX 00 00:00:00
    INDEX 01 00:01:74
FILE "Side Pocket 2 - Densetsu no Hustler (Japan) (Track 09).bin" BINARY
  TRACK 09 AUDIO
    INDEX 00 00:00:00
    INDEX 01 00:01:74
FILE "Side Pocket 2 - Densetsu no Hustler (Japan) (Track 10).bin" BINARY
  TRACK 10 AUDIO
    INDEX 00 00:00:00
    INDEX 01 00:01:74
FILE "Side Pocket 2 - Densetsu no Hustler (Japan) (Track 11).bin" BINARY
  TRACK 11 AUDIO
    INDEX 00 00:00:00
    INDEX 01 00:01:74
    INDEX 02 00:04:38
    INDEX 03 00:06:38
    INDEX 04 00:09:01
    INDEX 05 00:11:01
    INDEX 06 00:13:39
    INDEX 07 00:15:39
    INDEX 08 00:17:27
    INDEX 09 00:19:27
FILE "Side Pocket 2 - Densetsu no Hustler (Japan) (Track 12).bin" BINARY
  TRACK 12 AUDIO
    INDEX 00 00:00:00
    INDEX 01 00:01:74
    INDEX 02 00:03:46
    INDEX 03 00:05:46
    INDEX 04 00:07:18
    INDEX 05 00:09:18
    INDEX 06 00:10:54
    INDEX 07 00:12:54
    INDEX 08 00:14:12
    INDEX 09 00:16:12
FILE "Side Pocket 2 - Densetsu no Hustler (Japan) (Track 13).bin" BINARY
  TRACK 13 AUDIO
    INDEX 00 00:00:00
    INDEX 01 00:01:74
    INDEX 02 00:02:74
    INDEX 03 00:04:74
    INDEX 04 00:05:40
    INDEX 05 00:07:40
    INDEX 06 00:08:40
    INDEX 07 00:10:40
    INDEX 08 00:11:53
    INDEX 09 00:13:53
FILE "Side Pocket 2 - Densetsu no Hustler (Japan) (Track 14).bin" BINARY
  TRACK 14 AUDIO
    INDEX 00 00:00:00
    INDEX 01 00:01:74
    INDEX 02 00:02:68
    INDEX 03 00:04:68
    INDEX 04 00:05:66
    INDEX 05 00:07:66
    INDEX 06 00:08:58
    INDEX 07 00:10:58
    INDEX 08 00:11:52
    INDEX 09 00:13:52
FILE "Side Pocket 2 - Densetsu no Hustler (Japan) (Track 15).bin" BINARY
  TRACK 15 AUDIO
    INDEX 00 00:00:00
    INDEX 01 00:01:74
    INDEX 02 00:02:70
    INDEX 03 00:04:70
    INDEX 04 00:05:51
    INDEX 05 00:07:51
    INDEX 06 00:08:29
    INDEX 07 00:10:29
    INDEX 08 00:11:19
    INDEX 09 00:13:19
FILE "Side Pocket 2 - Densetsu no Hustler (Japan) (Track 16).bin" BINARY
  TRACK 16 AUDIO
    INDEX 00 00:00:00
    INDEX 01 00:01:74
    INDEX 02 00:03:00
    INDEX 03 00:05:00
    INDEX 04 00:05:56
    INDEX 05 00:07:56
    INDEX 06 00:08:29
    INDEX 07 00:10:29
    INDEX 08 00:11:38
    INDEX 09 00:13:38
FILE "Side Pocket 2 - Densetsu no Hustler (Japan) (Track 17).bin" BINARY
  TRACK 17 AUDIO
    INDEX 00 00:00:00
    INDEX 01 00:01:74
    INDEX 02 00:03:11
    INDEX 03 00:05:11
    INDEX 04 00:06:10
    INDEX 05 00:08:10
    INDEX 06 00:09:13
    INDEX 07 00:11:13
    INDEX 08 00:12:05
    INDEX 09 00:14:05
FILE "Side Pocket 2 - Densetsu no Hustler (Japan) (Track 18).bin" BINARY
  TRACK 18 AUDIO
    INDEX 00 00:00:00
    INDEX 01 00:01:74
    INDEX 02 00:02:57
    INDEX 03 00:04:57
    INDEX 04 00:05:64
    INDEX 05 00:07:64
    INDEX 06 00:08:54
    INDEX 07 00:10:54
    INDEX 08 00:11:47
    INDEX 09 00:13:47
FILE "Side Pocket 2 - Densetsu no Hustler (Japan) (Track 19).bin" BINARY
  TRACK 19 AUDIO
    INDEX 00 00:00:00
    INDEX 01 00:01:74
    INDEX 02 00:04:02
    INDEX 03 00:06:02
    INDEX 04 00:07:15
    INDEX 05 00:09:15
    INDEX 06 00:10:01
    INDEX 07 00:12:01
    INDEX 08 00:12:69
    INDEX 09 00:14:69
FILE "Side Pocket 2 - Densetsu no Hustler (Japan) (Track 20).bin" BINARY
  TRACK 20 AUDIO
    INDEX 00 00:00:00
    INDEX 01 00:01:74
    INDEX 02 00:03:23
    INDEX 03 00:05:23
    INDEX 04 00:06:46
    INDEX 05 00:08:46
    INDEX 06 00:10:02
    INDEX 07 00:12:02
    INDEX 08 00:13:55
    INDEX 09 00:15:55
FILE "Side Pocket 2 - Densetsu no Hustler (Japan) (Track 21).bin" BINARY
  TRACK 21 AUDIO
    INDEX 00 00:00:00
    INDEX 01 00:01:74
    INDEX 02 00:03:17
    INDEX 03 00:05:17
    INDEX 04 00:06:08
    INDEX 05 00:08:08
    INDEX 06 00:09:04
    INDEX 07 00:11:04
    INDEX 08 00:13:38
    INDEX 09 00:15:38
